<?xml version="1.0"?>
<svg xmlns="http://www.w3.org/2000/svg" xmlns:xlink="http://www.w3.org/1999/xlink" xmlns:svgjs="http://svgjs.com/svgjs" version="1.1" width="512" height="512" x="0" y="0" viewBox="0 0 512 512" style="enable-background:new 0 0 512 512" xml:space="preserve" class=""><circle r="256" cx="256" cy="256" fill="#d8eeff" shape="circle" transform="matrix(0.7,0,0,0.7,76.80000000000001,76.80000000000001)"/><g transform="matrix(0.5,0,0,0.5,128.0002555847168,127.99999809265137)"><g xmlns="http://www.w3.org/2000/svg"><g><g><path d="m106.759 442.915h183.574v59.085h-183.574z" fill="#14ff00" data-original="#ffbdbc" style="" class=""/></g><g><circle cx="195.25" cy="146.5" fill="#14ff00" r="92.147" data-original="#ffbdbc" style="" class=""/></g></g><g fill="#020288"><path d="m129.378 301.383h138.336c5.523 0 10-4.477 10-10s-4.477-10-10-10h-138.336c-5.523 0-10 4.477-10 10s4.477 10 10 10z" fill="#020288" data-original="#020288" style="" class=""/><path d="m287.714 329.787h-178.336c-5.523 0-10 4.477-10 10s4.477 10 10 10h178.336c5.523 0 10-4.477 10-10s-4.477-10-10-10z" fill="#020288" data-original="#020288" style="" class=""/><path d="m287.714 378.191h-178.336c-5.523 0-10 4.477-10 10s4.477 10 10 10h178.336c5.523 0 10-4.477 10-10s-4.477-10-10-10z" fill="#020288" data-original="#020288" style="" class=""/><path d="m154.757 172.052h14.942v14.941c0 5.523 4.477 10 10 10h31.104c5.523 0 10-4.477 10-10v-14.941h14.942c5.523 0 10-4.477 10-10v-31.104c0-5.523-4.477-10-10-10h-14.942v-14.942c0-5.523-4.477-10-10-10h-31.104c-5.523 0-10 4.477-10 10v14.942h-14.942c-5.523 0-10 4.477-10 10v31.104c0 5.523 4.477 10 10 10zm10-31.104h14.942c5.523 0 10-4.477 10-10v-14.942h11.104v14.942c0 5.523 4.477 10 10 10h14.942v11.104h-14.942c-5.523 0-10 4.477-10 10v14.941h-11.104v-14.941c0-5.523-4.477-10-10-10h-14.942z" fill="#020288" data-original="#020288" style="" class=""/><path d="m481.482 296.724h-111.499v-203.091h39.868c5.523 0 10-4.477 10-10v-32.794c.001-28.032-22.88-50.839-51.004-50.839h-281.634c-36.776 0-66.695 29.821-66.695 66.477v435.523c0 5.523 4.477 10 10 10h437.178c5.523 0 10-4.477 10-10v-144.803h3.787c5.523 0 10-4.477 10-10v-40.473c-.001-5.523-4.478-10-10.001-10zm-10 40.473h-134.212v-20.473h134.213v20.473zm-13.787 109.803h-106.638v-49.447h106.638zm-57.843-396.161v22.794h-29.868v-53.612c16.57.597 29.868 14.192 29.868 30.818zm-359.334 42.794h34.78c5.523 0 10-4.477 10-10s-4.477-10-10-10h-34.78v-7.157c0-25.627 20.947-46.476 46.695-46.476h262.77v276.724h-22.713c-5.523 0-10 4.477-10 10v40.473c0 5.523 4.477 10 10 10h3.788v134.803h-290.54zm310.539 398.367v-25h106.638v25zm106.638-114.447h-106.638v-20.356h106.638z" fill="#020288" data-original="#020288" style="" class=""/></g></g></g></svg>
