<?xml version="1.0"?>
<svg xmlns="http://www.w3.org/2000/svg" xmlns:xlink="http://www.w3.org/1999/xlink" xmlns:svgjs="http://svgjs.com/svgjs" version="1.1" width="512" height="512" x="0" y="0" viewBox="0 0 64 64" style="enable-background:new 0 0 512 512" xml:space="preserve" class=""><circle r="32" cx="32" cy="32" fill="#767e1e" shape="circle" transform="matrix(0.65,0,0,0.65,11.2,11.2)"/><g transform="matrix(0.5,0,0,0.5,16,16)"><g xmlns="http://www.w3.org/2000/svg" id="device"><circle cx="32" cy="32" r="3" fill="#ffffff" data-original="#000000" style="" class=""/><path d="m5 22h12a1 1 0 0 0 1-1v-16a1 1 0 0 0 -1-1h-12a1 1 0 0 0 -1 1v16a1 1 0 0 0 1 1zm5-4h2v2h-2z" fill="#ffffff" data-original="#000000" style="" class=""/><path d="m4 55a1 1 0 0 0 1 1h16a1 1 0 0 0 1-1v-1h-18z" fill="#ffffff" data-original="#000000" style="" class=""/><path d="m33.32 38.63a.989.989 0 0 1 .66-.82 7.758 7.758 0 0 0 .72-.3.979.979 0 0 1 1.05.11l1.89 1.47 1.45-1.45-1.47-1.89a.979.979 0 0 1 -.11-1.05c.11-.23.21-.47.3-.71a.984.984 0 0 1 .82-.67l2.37-.3v-2.04l-2.37-.3a.984.984 0 0 1 -.82-.67c-.09-.24-.19-.48-.3-.71a.979.979 0 0 1 .11-1.05l1.47-1.89-1.45-1.45-1.89 1.47a.979.979 0 0 1 -1.05.11c-.23-.11-.47-.21-.71-.3a.984.984 0 0 1 -.67-.82l-.3-2.37h-2.04l-.3 2.37a.984.984 0 0 1 -.67.82c-.24.09-.48.19-.71.3a.979.979 0 0 1 -1.05-.11l-1.89-1.47-1.45 1.45 1.47 1.89a.979.979 0 0 1 .11 1.05c-.11.23-.21.47-.3.71a.984.984 0 0 1 -.82.67l-2.37.3v2.04l2.37.3a.984.984 0 0 1 .82.67c.09.24.19.48.3.71a.979.979 0 0 1 -.11 1.05l-1.47 1.89 1.45 1.45 1.89-1.47a.979.979 0 0 1 1.05-.11 7.758 7.758 0 0 0 .72.3.989.989 0 0 1 .66.82l.3 2.37h2.04zm-6.32-6.63a5 5 0 1 1 5 5 5.006 5.006 0 0 1 -5-5z" fill="#ffffff" data-original="#000000" style="" class=""/><path d="m21 44h-16a1 1 0 0 0 -1 1v7h18v-7a1 1 0 0 0 -1-1z" fill="#ffffff" data-original="#000000" style="" class=""/><path d="m54 43h2a1 1 0 0 0 1-1h-4a1 1 0 0 0 1 1z" fill="#ffffff" data-original="#000000" style="" class=""/><path d="m59 42a3.009 3.009 0 0 1 -3 3h-2a3.009 3.009 0 0 1 -3-3 1 1 0 0 0 -1 1v16a1 1 0 0 0 1 1h8a1 1 0 0 0 1-1v-16a1 1 0 0 0 -1-1z" fill="#ffffff" data-original="#000000" style="" class=""/><path d="m48 15h2a1 1 0 0 1 1-1h7v-10h-18v10h7a1 1 0 0 1 1 1z" fill="#ffffff" data-original="#000000" style="" class=""/><path d="m59.2 19 .43-3h-7.63a1 1 0 0 1 -1 1h-4a1 1 0 0 1 -1-1h-7.63l.43 3z" fill="#ffffff" data-original="#000000" style="" class=""/><path d="m10.85 58-.49 2h5.28l-.49-2z" fill="#ffffff" data-original="#000000" style="" class=""/><path d="m50 22h-2v8h-3v2h4a1 1 0 0 0 1-1z" fill="#ffffff" data-original="#000000" style="" class=""/><path d="m11 32v8h2v-7h6v-2h-7a1 1 0 0 0 -1 1z" fill="#ffffff" data-original="#000000" style="" class=""/><path d="m31 19h2v-6a1 1 0 0 0 -1-1h-10v2h9z" fill="#ffffff" data-original="#000000" style="" class=""/><path d="m33 45h-2v8a1 1 0 0 0 1 1h14v-2h-13z" fill="#ffffff" data-original="#000000" style="" class=""/></g></g></svg>
