<?xml version="1.0"?>
<svg xmlns="http://www.w3.org/2000/svg" xmlns:xlink="http://www.w3.org/1999/xlink" xmlns:svgjs="http://svgjs.com/svgjs" version="1.1" width="512" height="512" x="0" y="0" viewBox="0 0 512 512" style="enable-background:new 0 0 512 512" xml:space="preserve" class=""><circle r="256" cx="256" cy="256" fill="#694f95" shape="circle" transform="matrix(0.6,0,0,0.6,102.4,102.4)"/><g transform="matrix(0.5,0,0,0.5,128.00002288818354,128.00024414062491)">
<g xmlns="http://www.w3.org/2000/svg">
	<g>
		<g>
			<path style="" d="M300.452,155.769v-45.982l-29.188-4.468c-2.115-7.412-5.051-14.473-8.726-21.074l17.478-23.796     l-32.514-32.514l-23.796,17.478c-6.601-3.675-13.662-6.611-21.074-8.726L198.164,7.5h-45.982l-4.468,29.188     c-7.412,2.115-14.473,5.051-21.074,8.726l-23.796-17.478L70.331,60.45l17.478,23.796c-3.675,6.601-6.611,13.662-8.726,21.074     l-29.188,4.468v45.982l29.188,4.468c2.115,7.412,5.051,14.473,8.726,21.074l-17.478,23.795l32.514,32.514l23.796-17.478     c6.6,3.675,13.662,6.611,21.074,8.726l4.468,29.188h45.982l4.468-29.188c7.412-2.115,14.474-5.051,21.074-8.726l23.796,17.478     l32.514-32.514l-17.478-23.795c3.675-6.601,6.611-13.662,8.726-21.074L300.452,155.769z M175.173,186.338     c-29.58,0-53.559-23.98-53.559-53.56s23.979-53.56,53.559-53.56c29.58,0,53.56,23.98,53.56,53.56     S204.754,186.338,175.173,186.338z" fill="#d37cca" data-original="#afb5bf"/>
		</g>
		<path style="" d="M395.711,254.156c0-72.64-58.886-131.526-131.526-131.526c-72.64,0-131.526,58.886-131.526,131.526    c0,2.905,0.104,5.785,0.29,8.644L93.053,370.212h43.768v40.751c0,16.407,13.3,29.707,29.707,29.707h60.195V504.5h124.206V353.014    C378.379,328.909,395.711,293.559,395.711,254.156z" fill="#ffc18e" data-original="#f9c295" class=""/>
		<path style="" d="M264.185,122.631c-4.442,0-8.831,0.223-13.159,0.653c66.461,6.603,118.366,62.674,118.366,130.872    c0,39.403-17.332,74.753-44.781,98.858V504.5h26.318V353.014c27.45-24.105,44.781-59.455,44.781-98.858    C395.711,181.517,336.825,122.631,264.185,122.631z" fill="#e3cbb9" data-original="#e59f6a" class=""/>
		<polygon style="" points="184.136,504.5 368.538,504.5 368.538,468.278 209.266,468.278   " fill="#ebeef2" data-original="#ebeef2"/>
		<rect x="343.131" y="468.278" style="" width="25.408" height="36.222" fill="#d1d6de" data-original="#d1d6de"/>
		<g>
			<path style="" d="M399.376,232.014l59.007-45.153c4.962-3.797,4.962-11.271,0-15.068l-59.007-45.153     c-6.242-4.776-15.252-0.326-15.252,7.534v17.657h-55.887c-6.596,0-11.943,5.347-11.943,11.943v31.106     c0,6.596,5.347,11.943,11.943,11.943h55.887v17.657C384.125,232.339,393.135,236.79,399.376,232.014z" fill="#f2df33" data-original="#f2df33"/>
			<path style="" d="M273.329,255.75l-59.007-45.153c-4.962-3.797-4.962-11.271,0-15.068l59.007-45.153     c6.242-4.776,15.252-0.326,15.252,7.534v17.657h55.887c6.596,0,11.943,5.347,11.943,11.943v31.106     c0,6.596-5.347,11.943-11.943,11.943h-55.887v17.657C288.581,256.076,279.571,260.526,273.329,255.75z" fill="#48cfb7" data-original="#48cfb7" class=""/>
			<path style="" d="M356.411,187.51c0-6.596-5.347-11.943-11.943-11.943h-28.173v19.313     c0,6.596,5.347,11.943,11.943,11.943h28.173V187.51z" fill="#5c9cee" data-original="#5c9cee" class=""/>
		</g>
	</g>
	<g>
		<path d="M103.537,37.75l18.664,13.709c2.363,1.736,5.523,1.936,8.088,0.508c6.131-3.413,12.687-6.127,19.483-8.066    c2.819-0.804,4.912-3.179,5.356-6.077L158.622,15h33.103l3.493,22.823c0.444,2.898,2.537,5.273,5.356,6.077    c6.797,1.939,13.353,4.653,19.483,8.066c2.563,1.428,5.725,1.229,8.088-0.508l18.606-13.667L270.159,61.2l-13.666,18.606    c-1.736,2.364-1.936,5.524-0.508,8.088c3.413,6.131,6.127,12.686,8.066,19.482c0.804,2.82,3.179,4.912,6.077,5.356l22.317,3.416    c0.385,0.059,0.767,0.087,1.145,0.087c3.641,0,6.836-2.656,7.404-6.366c0.626-4.095-2.185-7.922-6.279-8.549l-17.68-2.706    c-1.575-4.702-3.474-9.288-5.676-13.711l14.7-20.015c2.192-2.985,1.877-7.124-0.741-9.742l-32.514-32.515    c-2.619-2.621-6.76-2.932-9.743-0.742l-20.015,14.701c-4.424-2.202-9.01-4.101-13.712-5.676l-3.758-24.551    C205.018,2.704,201.868,0,198.164,0h-45.981c-3.704,0-6.854,2.704-7.414,6.365l-3.758,24.551    c-4.702,1.575-9.288,3.474-13.712,5.676l-20.015-14.701c-2.985-2.193-7.125-1.878-9.743,0.742l-3.829,3.83    c-2.929,2.93-2.929,7.678,0.001,10.606C96.395,39.751,100.6,39.979,103.537,37.75z" fill="#000000" data-original="#000000" style="" class=""/>
		<path d="M102.847,245.121c1.551,0,3.108-0.479,4.438-1.455l6.297-4.625c3.339-2.452,4.058-7.146,1.605-10.484    c-2.451-3.34-7.146-4.058-10.484-1.605l-1.107,0.813l-23.407-23.408l13.666-18.605c1.736-2.364,1.936-5.523,0.509-8.087    c-3.415-6.135-6.129-12.69-8.067-19.484c-0.804-2.819-3.179-4.912-6.077-5.356l-22.823-3.493v-33.104l22.823-3.493    c2.898-0.444,5.273-2.536,6.077-5.356c1.938-6.793,4.652-13.349,8.067-19.483c1.426-2.563,1.228-5.723-0.509-8.087L80.188,61.2    l1.882-1.881c2.929-2.93,2.929-7.678,0-10.607c-2.93-2.928-7.678-2.928-10.607,0l-6.435,6.435    c-2.619,2.619-2.934,6.758-0.741,9.743l14.7,20.015c-2.202,4.425-4.101,9.01-5.676,13.711l-24.551,3.758    c-3.661,0.561-6.365,3.71-6.365,7.414v45.982c0,3.704,2.704,6.854,6.365,7.414l24.551,3.758c1.575,4.701,3.474,9.287,5.676,13.711    l-14.7,20.015c-2.192,2.984-1.878,7.124,0.741,9.742l32.514,32.515C98.994,244.377,100.915,245.121,102.847,245.121z" fill="#000000" data-original="#000000" style="" class=""/>
		<path d="M175.174,86.719c14.154,0,27.32,6.372,36.124,17.481c2.572,3.246,7.287,3.793,10.536,1.22    c3.246-2.572,3.793-7.289,1.22-10.536c-11.665-14.722-29.117-23.165-47.88-23.165c-33.668,0-61.06,27.392-61.06,61.06    c0,11.952,3.454,23.529,9.99,33.48c1.44,2.193,3.834,3.384,6.275,3.384c1.413,0,2.841-0.398,4.11-1.232    c3.462-2.273,4.426-6.924,2.151-10.386c-4.925-7.498-7.527-16.229-7.527-25.246C129.114,107.381,149.776,86.719,175.174,86.719z" fill="#000000" data-original="#000000" style="" class=""/>
		<path d="M395.857,258.52c-4.12-0.366-7.77,2.677-8.138,6.804c-2.837,31.771-17.66,60.91-41.738,82.051    c-1.622,1.424-2.552,3.478-2.552,5.636v107.769H234.22V440.67c0-4.143-3.357-7.5-7.5-7.5H166.53    c-12.247,0-22.21-9.963-22.21-22.21v-40.75c0-4.143-3.357-7.5-7.5-7.5h-32.983l36.144-97.299c0.369-0.993,0.523-2.053,0.453-3.109    c-0.182-2.725-0.273-5.464-0.273-8.142c0-68.391,55.64-124.03,124.03-124.03c14.591,0,28.888,2.513,42.493,7.467    c3.892,1.419,8.196-0.589,9.613-4.48c1.418-3.892-0.588-8.196-4.48-9.613c-15.256-5.556-31.279-8.373-47.626-8.373    c-76.661,0-139.03,62.369-139.03,139.03c0,2.476,0.07,4.995,0.208,7.513L86.02,367.599c-0.855,2.302-0.529,4.877,0.872,6.893    c1.402,2.017,3.702,3.219,6.158,3.219h36.271v33.25c0,20.518,16.692,37.21,37.21,37.21h52.689v12.608h-9.954    c-2.458,0-4.761,1.205-6.162,3.225l-25.129,36.222c-1.591,2.293-1.777,5.28-0.483,7.753c1.295,2.473,3.854,4.022,6.646,4.022    h42.583h124.21h17.608c4.143,0,7.5-3.357,7.5-7.5v-36.222c0-4.143-3.357-7.5-7.5-7.5H358.43V356.351    c25.481-23.487,41.151-55.205,44.231-89.693C403.029,262.531,399.983,258.889,395.857,258.52z M361.038,497H350.93H226.72h-28.252    l14.723-21.222h13.491c0.013,0,0.026,0.002,0.039,0.002s0.026-0.002,0.039-0.002h124.133c0.013,0,0.026,0.002,0.039,0.002    s0.026-0.002,0.039-0.002h10.07V497z" fill="#000000" data-original="#000000" style="" class=""/>
		<path d="M462.941,165.837l-59.007-45.153c-5.169-3.956-12.009-4.624-17.846-1.739c-5.838,2.883-9.464,8.719-9.464,15.229v10.157    h-48.387c-10.721,0-19.443,8.722-19.443,19.442v4.294h-12.714V157.91c0-6.511-3.626-12.347-9.464-15.229    c-5.838-2.885-12.676-2.219-17.846,1.739l-59.007,45.153c-4.235,3.24-6.664,8.157-6.664,13.49c0,5.332,2.429,10.249,6.664,13.489    l59.007,45.153c3.039,2.325,6.652,3.515,10.302,3.515c2.56,0,5.138-0.586,7.545-1.774c5.837-2.884,9.463-8.72,9.463-15.23V238.06    h48.387c10.721,0,19.443-8.723,19.443-19.443v-4.293h12.714v10.156c0,6.511,3.626,12.347,9.463,15.23    c2.407,1.188,4.984,1.774,7.545,1.774c3.648,0,7.264-1.189,10.302-3.515l59.007-45.153c4.235-3.24,6.664-8.157,6.664-13.489    C469.605,173.994,467.177,169.077,462.941,165.837z M348.911,199.323h-20.673c-2.45,0-4.443-1.993-4.443-4.443v-11.813h20.673    c2.45,0,4.443,1.993,4.443,4.442V199.323z M344.468,223.06h-55.887c-4.143,0-7.5,3.357-7.5,7.5v17.656    c0,1.021-0.602,1.532-1.106,1.781c-0.505,0.25-1.276,0.417-2.088-0.203l-59.007-45.153c-0.644-0.493-0.779-1.13-0.779-1.577    c0-0.448,0.136-1.085,0.779-1.578l59.007-45.153c0.812-0.62,1.582-0.453,2.087-0.203c0.506,0.249,1.107,0.761,1.107,1.781v17.657    c0,4.143,3.357,7.5,7.5,7.5h20.214v11.813c0,10.721,8.723,19.443,19.443,19.443h20.673v4.293    C348.911,221.066,346.918,223.06,344.468,223.06z M453.826,180.904l-59.007,45.153c-0.812,0.62-1.583,0.452-2.088,0.203    s-1.106-0.761-1.106-1.781v-17.656c0-4.143-3.357-7.5-7.5-7.5h-20.214V187.51c0-10.721-8.723-19.442-19.443-19.442h-20.673v-4.294    c0-2.449,1.993-4.442,4.443-4.442h55.887c4.143,0,7.5-3.357,7.5-7.5v-17.657c0-1.021,0.602-1.532,1.107-1.781    c0.505-0.249,1.275-0.417,2.087,0.203l59.007,45.153c0.644,0.493,0.779,1.13,0.779,1.578    C454.605,179.774,454.47,180.411,453.826,180.904z" fill="#000000" data-original="#000000" style="" class=""/>
		<path d="M288.461,351.793h-10.073c-4.143,0-7.5,3.357-7.5,7.5s3.357,7.5,7.5,7.5h10.073c14.032,0,25.448-11.416,25.448-25.449    v-26.079c0-14.032-11.416-25.448-25.448-25.448h-10.073c-4.143,0-7.5,3.357-7.5,7.5s3.357,7.5,7.5,7.5h10.073    c5.761,0,10.448,4.688,10.448,10.448v26.079C298.909,347.105,294.222,351.793,288.461,351.793z" fill="#000000" data-original="#000000" style="" class=""/>
	</g>
</g>















</g></svg>
