<?xml version="1.0"?>
<svg xmlns="http://www.w3.org/2000/svg" xmlns:xlink="http://www.w3.org/1999/xlink" xmlns:svgjs="http://svgjs.com/svgjs" version="1.1" width="512" height="512" x="0" y="0" viewBox="0 0 512.001 512.001" style="enable-background:new 0 0 512 512" xml:space="preserve" class=""><circle r="256.0005" cx="256.0005" cy="256.0005" fill="#ff2645" shape="circle" transform="matrix(0.6,0,0,0.6,102.40019531250002,102.40019531250002)"/><g transform="matrix(0.5,0,0,0.49999999999999994,128.0000667572021,128.00024414062503)">
<g xmlns="http://www.w3.org/2000/svg">
	<path style="" d="M107.066,328.721c0-60.773,39.296-112.369,93.865-130.768v-36.84   c-74.337,19.51-129.175,87.15-129.175,167.607c0,95.701,77.581,173.281,173.281,173.281c56.045,0,105.867-26.617,137.54-67.889   c-3.421-3.768-6.018-8.373-7.419-13.602l-7.59-28.324c-22.973,44.262-69.218,74.506-122.532,74.506   C168.838,466.693,107.066,404.922,107.066,328.721z" fill="#a5a0a0" data-original="#ff3d53" class=""/>
	<g>
		<path style="" d="M200.931,197.953v87.84c0,24.258,19.849,44.105,44.105,44.105h105.843l16.69,62.289l7.59,28.324    c1.4,5.228,3.998,9.834,7.419,13.602c8.084,8.9,20.766,13.115,33.122,9.805c17.586-4.711,28.119-22.957,23.407-40.541    l-20.749-77.438c-9.003-33.596-15.902-62.246-48.911-62.246h-80.304v-57.377h44.108c13.99,0,25.438-11.445,25.438-25.438    c0-13.99-11.447-25.438-25.438-25.438h-44.108v-13.123c0-24.258-19.847-44.106-44.106-44.106s-44.105,19.848-44.105,44.106v18.795    v36.841H200.931z" fill="#aecde9" data-original="#e9d8ae" class=""/>
		<path style="" d="M200.931,54.105c0,24.26,19.847,44.107,44.105,44.107s44.106-19.848,44.106-44.107    c0-24.258-19.848-44.105-44.106-44.105S200.931,29.848,200.931,54.105z" fill="#aecde9" data-original="#e9d8ae" class=""/>
	</g>
</g>
<path xmlns="http://www.w3.org/2000/svg" d="M448.766,400.789l-21.355-79.703c-8.861-33.132-18.024-67.393-57.964-67.393h-70.304v-37.377h34.108  c19.54,0,35.438-15.897,35.438-35.438c0-19.54-15.897-35.438-35.438-35.438h-34.108v-3.123c0-18.186-9.027-34.291-22.826-44.106  c13.799-9.815,22.826-25.922,22.826-44.107C299.143,24.271,274.871,0,245.037,0s-54.105,24.271-54.105,54.105  c0,18.186,9.027,34.292,22.826,44.107c-13.799,9.814-22.826,25.92-22.826,44.106v11.25  C114.491,177.116,61.757,248.054,61.757,328.72c0,101.061,82.22,183.281,183.281,183.281c28.981,0,56.709-6.574,82.413-19.539  c21.421-10.805,40.781-25.977,56.509-44.213c6.771,4.324,14.775,6.793,23.225,6.793c3.738,0,7.475-0.493,11.103-1.466  c11.085-2.97,20.368-10.108,26.138-20.103C450.195,423.482,451.737,411.873,448.766,400.789z M210.931,54.105  c0-18.806,15.3-34.105,34.105-34.105c18.807,0,34.106,15.3,34.106,34.105c0,18.807-15.3,34.107-34.106,34.107  C226.231,88.213,210.931,72.912,210.931,54.105z M245.037,339.898h98.169l13.675,51.033  c-22.634,40.659-65.136,65.762-111.844,65.762c-70.564,0-127.971-57.408-127.971-127.973c0-50.202,29.167-95.183,73.865-115.997  v73.069C190.931,315.627,215.203,339.898,245.037,339.898z M245.038,492.002c-90.033,0-163.281-73.248-163.281-163.281  c0-69.776,44.276-131.379,109.175-154.102v16.338c-56.439,22.133-93.865,76.606-93.865,137.764  c0,81.593,66.379,147.973,147.971,147.973c47.455,0,91.161-22.403,118.818-59.729l1.036,3.863l0.608,2.272  c0.229,0.858,0.493,1.701,0.773,2.535c0.048,0.144,0.096,0.288,0.146,0.433c0.293,0.843,0.608,1.674,0.95,2.49  c0.02,0.048,0.041,0.094,0.061,0.142c0.737,1.746,1.586,3.427,2.533,5.038c0.014,0.023,0.025,0.048,0.039,0.071  C338.858,470.889,293.726,492.002,245.038,492.002z M427.105,423.475c-3.099,5.367-8.068,9.196-13.994,10.784  c-1.941,0.521-3.936,0.784-5.927,0.784c-7.01,0-13.439-3.167-17.739-8.279c-0.175-0.207-0.349-0.414-0.516-0.627  c-0.292-0.372-0.574-0.752-0.843-1.143c-0.078-0.111-0.152-0.226-0.228-0.339c-0.282-0.427-0.555-0.862-0.81-1.31  c-0.027-0.048-0.057-0.095-0.084-0.143c-0.297-0.53-0.574-1.073-0.83-1.63c-0.012-0.026-0.023-0.055-0.035-0.082  c-0.227-0.496-0.431-1.006-0.623-1.522c-0.043-0.119-0.088-0.237-0.13-0.357c-0.194-0.553-0.376-1.113-0.529-1.688l-24.28-90.613  c-1.171-4.372-5.133-7.412-9.659-7.412H245.037c-18.806,0-34.105-15.3-34.105-34.105V142.318l0,0l0,0  c0-18.806,15.3-34.106,34.105-34.106c18.807,0,34.106,15.3,34.106,34.106v13.123c0,5.522,4.478,10,10,10h44.108  c8.513,0,15.438,6.925,15.438,15.438s-6.925,15.438-15.438,15.438h-44.108c-5.522,0-10,4.478-10,10v57.377c0,5.523,4.478,10,10,10  h80.304c23.492,0,29.406,18.023,38.644,52.56l21.357,79.712C431.036,411.89,430.204,418.108,427.105,423.475z" fill="#000000" data-original="#000000" style="" class=""/>
<path xmlns="http://www.w3.org/2000/svg" d="M168.702,386.905c-3.351-4.391-9.626-5.233-14.017-1.882c-4.39,3.351-5.232,9.626-1.882,14.017  c14.893,19.514,35.125,33.577,58.507,40.672c0.968,0.294,1.945,0.434,2.907,0.434c4.289,0,8.256-2.782,9.565-7.1  c1.604-5.285-1.381-10.869-6.666-12.473C197.776,414.705,181.034,403.063,168.702,386.905z" fill="#000000" data-original="#000000" style="" class=""/>
<path xmlns="http://www.w3.org/2000/svg" d="M244.593,444.693h0.444c5.522,0,10-4.477,10-10c0-5.522-4.478-10-10-10h-0.444c-5.523,0-10,4.478-10,10  C234.593,440.216,239.07,444.693,244.593,444.693z" fill="#000000" data-original="#000000" style="" class=""/>
<g xmlns="http://www.w3.org/2000/svg">
</g>
<g xmlns="http://www.w3.org/2000/svg">
</g>
<g xmlns="http://www.w3.org/2000/svg">
</g>
<g xmlns="http://www.w3.org/2000/svg">
</g>
<g xmlns="http://www.w3.org/2000/svg">
</g>
<g xmlns="http://www.w3.org/2000/svg">
</g>
<g xmlns="http://www.w3.org/2000/svg">
</g>
<g xmlns="http://www.w3.org/2000/svg">
</g>
<g xmlns="http://www.w3.org/2000/svg">
</g>
<g xmlns="http://www.w3.org/2000/svg">
</g>
<g xmlns="http://www.w3.org/2000/svg">
</g>
<g xmlns="http://www.w3.org/2000/svg">
</g>
<g xmlns="http://www.w3.org/2000/svg">
</g>
<g xmlns="http://www.w3.org/2000/svg">
</g>
<g xmlns="http://www.w3.org/2000/svg">
</g>
</g></svg>
