<?xml version="1.0"?>
<svg xmlns="http://www.w3.org/2000/svg" xmlns:xlink="http://www.w3.org/1999/xlink" xmlns:svgjs="http://svgjs.com/svgjs" version="1.1" width="512" height="512" x="0" y="0" viewBox="0 0 512 512" style="enable-background:new 0 0 512 512" xml:space="preserve" class=""><circle r="256" cx="256" cy="256" fill="#c93f3f" shape="circle" transform="matrix(0.65,0,0,0.65,89.6,89.6)"/><g transform="matrix(0.5,0,0,0.5,128.00043106079102,128.00004577636727)">
<g xmlns="http://www.w3.org/2000/svg">
	<g>
		<path d="M449.771,470.475L416.382,325.79c-3.722-14.89-17.047-25.287-32.394-25.287h-64.876    c-9.178-15.069-21.144-28.282-35.291-38.91v-94.647c0-25.164-26.951-40.553-48.323-29.868l-66.778,33.389    c-11.385,5.69-18.344,17.135-18.344,29.868v42.705c-0.207,0.071-0.417,0.094-0.622,0.174    c-53.773,21.003-88.521,71.886-88.521,129.632c0,76.713,62.409,139.122,139.122,139.122c77.23,0,142.093-63.95,138.875-144.687    h18.691l27.063,119.4c4.459,17.802,22.381,28.848,40.498,24.292C443.332,506.511,454.228,488.344,449.771,470.475z     M200.353,478.579c-58.301,0-105.732-47.432-105.732-105.732c0-39.568,21.583-74.727,55.754-92.997v42.913    c0,18.412,14.866,33.389,33.278,33.389s33.389-14.977,33.389-33.389v-54.647c0.826,0.292,1.658,0.574,2.549,0.738    c50.116,9.205,86.495,52.942,86.495,103.994C306.085,431.147,258.654,478.579,200.353,478.579z" fill="#ffffff" data-original="#000000" style="" class=""/>
	</g>
</g>
<g xmlns="http://www.w3.org/2000/svg">
	<g>
		<path d="M256.002,0c-27.617,0-50.084,22.466-50.084,50.084s22.466,50.084,50.084,50.084s50.084-22.466,50.084-50.084    S283.619,0,256.002,0z" fill="#ffffff" data-original="#000000" style="" class=""/>
	</g>
</g>
<g xmlns="http://www.w3.org/2000/svg">
</g>
<g xmlns="http://www.w3.org/2000/svg">
</g>
<g xmlns="http://www.w3.org/2000/svg">
</g>
<g xmlns="http://www.w3.org/2000/svg">
</g>
<g xmlns="http://www.w3.org/2000/svg">
</g>
<g xmlns="http://www.w3.org/2000/svg">
</g>
<g xmlns="http://www.w3.org/2000/svg">
</g>
<g xmlns="http://www.w3.org/2000/svg">
</g>
<g xmlns="http://www.w3.org/2000/svg">
</g>
<g xmlns="http://www.w3.org/2000/svg">
</g>
<g xmlns="http://www.w3.org/2000/svg">
</g>
<g xmlns="http://www.w3.org/2000/svg">
</g>
<g xmlns="http://www.w3.org/2000/svg">
</g>
<g xmlns="http://www.w3.org/2000/svg">
</g>
<g xmlns="http://www.w3.org/2000/svg">
</g>
</g></svg>
