<?xml version="1.0"?>
<svg xmlns="http://www.w3.org/2000/svg" xmlns:xlink="http://www.w3.org/1999/xlink" xmlns:svgjs="http://svgjs.com/svgjs" version="1.1" width="512" height="512" x="0" y="0" viewBox="0 0 510.122 510.122" style="enable-background:new 0 0 512 512" xml:space="preserve" class=""><circle r="255.061" cx="255.061" cy="255.061" fill="#8ac4f1" shape="circle" transform="matrix(0.6,0,0,0.6,102.02440185546877,102.02440185546877)"/><g transform="matrix(0.42000000000000004,0,0,0.42000000000000004,147.93507736206053,147.9353777122497)"><g xmlns="http://www.w3.org/2000/svg"><g><ellipse cx="348.414" cy="158.269" fill="#ffbebe" rx="27.143" ry="27.143" transform="matrix(.707 -.707 .707 .707 -9.865 292.722)" data-original="#ffcdbe" style=""/></g><g><path d="m403.554 342.698-93.466-35.049c-5.392-2.022-8.964-7.176-8.964-12.934v-81.265h-46.064-46.064v81.264c0 5.758-3.572 10.912-8.964 12.934l-93.466 35.05c-30.295 11.361-50.366 40.324-50.366 72.681v79.421c0 4.32 3.502 7.822 7.822 7.822h191.039 191.039c4.32 0 7.822-3.502 7.822-7.822v-79.421c-.001-32.357-20.072-61.32-50.368-72.681z" fill="#5fa4ff" data-original="#80b6fc" style="" class=""/></g><g><path d="m403.553 342.698-93.465-35.049c-5.391-2.022-8.964-7.176-8.964-12.934v-81.265h-30v81.264c0 5.758 3.572 10.912 8.964 12.934l93.465 35.049c30.297 11.361 50.368 40.324 50.368 72.681v79.422c0 4.32-3.502 7.822-7.822 7.822h30c4.32 0 7.822-3.502 7.822-7.822v-79.421c0-32.357-20.071-61.32-50.368-72.681z" fill="#69aaff" data-original="#62a4fb" style="" class=""/></g><g><path d="m351.535 323.191-41.447-15.543c-5.392-2.022-8.963-7.176-8.963-12.934v-81.264h-92.127v81.264c0 5.758-3.572 10.913-8.964 12.934l-41.447 15.543 22.533 16.716c43.912 32.576 103.97 32.576 147.881 0z" fill="#ffbebe" data-original="#ffcdbe" style=""/></g><g><path d="m165.726 110.576v70.372c0 49.338 39.997 89.335 89.335 89.335 49.339 0 89.335-39.997 89.335-89.335v-70.372c0-19.803-16.054-35.857-35.857-35.857h-106.957c-19.803 0-35.856 16.054-35.856 35.857z" fill="#ffbebe" data-original="#ffcdbe" style=""/></g><g><path d="m301.125 294.714v-31.431h-24.082v48.659c0 5.758 3.572 10.912 8.963 12.934l41.447 15.543-7.688 5.703c3.146-1.924 6.232-3.986 9.237-6.215l22.533-16.716-41.447-15.543c-5.391-2.022-8.963-7.176-8.963-12.934z" fill="#f5c1b3" data-original="#f5c1b3" style=""/></g><g><path d="m308.539 74.719h-30c19.803 0 35.857 16.053 35.857 35.857v70.372c0 44.226-32.14 80.94-74.335 88.075 4.878.825 9.888 1.26 15 1.26 49.338 0 89.335-39.997 89.335-89.335v-70.372c0-19.803-16.053-35.857-35.857-35.857z" fill="#f5c1b3" data-original="#f5c1b3" style=""/></g><g><ellipse cx="145.663" cy="415.643" fill="#eeeeee" rx="22.249" ry="22.249" transform="matrix(.23 -.973 .973 .23 -292.328 461.915)" data-original="#eeeeee" style="" class=""/></g><g><ellipse cx="160.587" cy="158.269" fill="#ffbebe" rx="27.143" ry="27.143" transform="matrix(.924 -.383 .383 .924 -48.343 73.502)" data-original="#ffcdbe" style=""/></g><g><path d="m283.72 7.5h-57.318c-9.673 0-19.159 2.666-27.416 7.704l-18.239 11.13c-9.33 5.693-15.021 15.834-15.021 26.763v78.117h89.335 89.335v-78.117c0-10.929-5.692-21.07-15.021-26.763l-18.239-11.13c-8.258-5.038-17.743-7.704-27.416-7.704z" fill="#91c0ff" data-original="#bed9fd" style="" class=""/></g><g><path d="m329.375 26.334-18.239-11.13c-8.258-5.038-17.743-7.704-27.416-7.704h-30c9.673 0 19.159 2.666 27.416 7.704l18.239 11.13c9.33 5.693 15.021 15.834 15.021 26.763v78.117h30v-78.117c0-10.929-5.692-21.07-15.021-26.763z" fill="#93c3ff" data-original="#9ec8fc" style="" class=""/></g><g><path d="m280.035 54.168h-6.431c-.295 0-.533-.239-.533-.533v-6.431c0-5.563-4.51-10.072-10.072-10.072h-12.958c-5.563 0-10.072 4.51-10.072 10.072v6.431c0 .295-.239.533-.533.533h-6.431c-5.563 0-10.072 4.51-10.072 10.072v12.958c0 5.563 4.51 10.073 10.072 10.073h6.431c.294 0 .533.239.533.533v6.431c0 5.563 4.509 10.072 10.072 10.072h12.958c5.563 0 10.073-4.51 10.073-10.073v-6.431c0-.295.239-.533.533-.533h6.431c5.563 0 10.072-4.509 10.072-10.072v-12.958c0-5.563-4.51-10.072-10.073-10.072z" fill="#d1437f" data-original="#5392f9" style="" class=""/></g><g><path d="m250.041 111.807h12.958c9.513 0 17.284-7.598 17.564-17.044 9.446-.28 17.045-8.051 17.045-17.564v-12.959c0-9.513-7.599-17.285-17.045-17.565-.28-9.446-8.052-17.044-17.564-17.044h-12.958c-9.513 0-17.284 7.598-17.564 17.044-9.446.28-17.044 8.052-17.044 17.564v12.959c0 9.513 7.598 17.284 17.044 17.564.279 9.447 8.051 17.045 17.564 17.045zm-19.609-34.609v-12.958c0-1.418 1.154-2.572 2.573-2.572h6.431c4.43 0 8.033-3.604 8.033-8.033v-6.431c0-1.418 1.154-2.572 2.572-2.572h12.958c1.418 0 2.572 1.154 2.572 2.572v6.431c0 4.43 3.603 8.033 8.033 8.033h6.431c1.419 0 2.573 1.154 2.573 2.573v12.958c0 1.418-1.154 2.572-2.572 2.572h-6.432c-4.43 0-8.033 3.604-8.033 8.033v6.431c0 1.418-1.154 2.573-2.572 2.573h-12.958c-1.418 0-2.572-1.154-2.572-2.572v-6.431c0-4.43-3.604-8.033-8.033-8.033h-6.431c-1.419-.001-2.573-1.155-2.573-2.574z" fill="#000000" data-original="#000000" style="" class=""/><path d="m406.187 335.675-93.466-35.05c-2.45-.919-4.097-3.294-4.097-5.912v-33.136c22.953-15.299 39.035-40.125 42.546-68.786 17.816-1.411 31.886-16.35 31.886-34.523 0-17.927-13.688-32.715-31.16-34.467v-70.704c0-13.451-7.133-26.159-18.615-33.165l-18.239-11.13c-9.437-5.758-20.268-8.802-31.322-8.802h-57.318c-11.054 0-21.885 3.044-31.322 8.802l-18.24 11.13c-11.482 7.006-18.614 19.714-18.614 33.165v70.619c-18.004 1.219-32.281 16.245-32.281 34.553 0 18.556 14.666 33.749 33.016 34.601 3.531 28.627 19.605 53.422 42.537 68.707v33.136c0 2.617-1.646 4.993-4.097 5.912l-93.466 35.05c-33.038 12.39-55.235 44.42-55.235 79.703v46.115c0 4.142 3.358 7.5 7.5 7.5s7.5-3.358 7.5-7.5v-46.115c0-29.066 18.286-55.452 45.501-65.658l28.962-10.861v47.994c-12.785 3.333-22.249 14.976-22.249 28.79 0 16.404 13.345 29.75 29.749 29.75s29.749-13.346 29.749-29.75c0-13.814-9.465-25.457-22.249-28.79v-53.619l4.288-1.608c.201.186.412.366.638.533l18.563 13.771c22.848 16.95 49.961 25.909 78.41 25.909 28.447 0 55.562-8.959 78.409-25.909l18.597-13.796c.215-.159.417-.329.61-.505l10.379 3.892v45.064c-18.718 1.258-33.564 16.877-33.564 35.909v59.399c0 4.142 3.357 7.5 7.5 7.5h11.422c4.143 0 7.5-3.358 7.5-7.5s-3.357-7.5-7.5-7.5h-3.922v-51.899c0-11.58 9.421-21.001 21-21.001h9.275c11.579 0 21 9.421 21 21.001v51.899h-3.883c-4.142 0-7.5 3.358-7.5 7.5s3.358 7.5 7.5 7.5h11.383c4.143 0 7.5-3.358 7.5-7.5v-59.399c0-18.741-14.397-34.176-32.711-35.844v-39.503l22.863 8.574c27.216 10.206 45.502 36.592 45.502 65.659v79.42c0 .177-.145.322-.321.322h-382.079c-.177 0-.322-.145-.322-.322v-3.307c0-4.142-3.358-7.5-7.5-7.5s-7.5 3.358-7.5 7.5v3.307c0 8.448 6.874 15.322 15.322 15.322h382.078c8.448 0 15.321-6.874 15.321-15.322v-79.421c0-35.284-22.197-67.314-55.234-79.704zm-245.775 79.968c0 8.133-6.616 14.75-14.749 14.75s-14.749-6.617-14.749-14.75 6.616-14.749 14.749-14.749 14.749 6.616 14.749 14.749zm207.644-257.373c0 9.641-6.987 17.664-16.16 19.315v-38.63c9.173 1.65 16.16 9.674 16.16 19.315zm-227.112 0c0-10.031 7.562-18.314 17.281-19.486v38.973c-9.719-1.173-17.281-9.457-17.281-19.487zm32.282 22.677v-42.233h41.093c4.142 0 7.5-3.358 7.5-7.5s-3.358-7.5-7.5-7.5h-41.093v-70.617c0-8.258 4.379-16.06 11.428-20.361l18.24-11.129c7.082-4.322 15.211-6.607 23.508-6.607h57.318c8.297 0 16.426 2.285 23.509 6.607l18.239 11.129c7.049 4.301 11.428 12.103 11.428 20.361v70.617h-92.577c-4.142 0-7.5 3.358-7.5 7.5s3.358 7.5 7.5 7.5h92.577v42.233c0 45.124-36.711 81.835-81.835 81.835s-81.835-36.711-81.835-81.835zm151.307 152.937c-20.243 15.018-44.267 22.956-69.472 22.956-25.206 0-49.229-7.938-69.472-22.956l-11.469-8.508 28.546-10.705c8.272-3.102 13.831-11.122 13.831-19.957v-24.951c11.824 5.154 24.864 8.02 38.564 8.02 13.699 0 26.74-2.866 38.563-8.02v24.951c0 8.835 5.559 16.855 13.83 19.957l28.547 10.705z" fill="#000000" data-original="#000000" style="" class=""/></g></g></g></svg>
