<?xml version="1.0"?>
<svg xmlns="http://www.w3.org/2000/svg" xmlns:xlink="http://www.w3.org/1999/xlink" xmlns:svgjs="http://svgjs.com/svgjs" version="1.1" width="512" height="512" x="0" y="0" viewBox="0 0 128 128" style="enable-background:new 0 0 512 512" xml:space="preserve" class=""><g transform="matrix(0.72,0,0,0.72,17.920138854980443,17.919859542846687)"><g xmlns="http://www.w3.org/2000/svg"><path d="m117.436 31.709h-84.054v-8.859c0-.224-.075-.441-.214-.618-2.32-2.954-5.795-4.648-9.533-4.648-6.275 0-11.462 4.705-12.07 11.041v4.084 66.623.083c0 8.271 6.729 15 15 15h90.872c1.654 0 3-1.346 3-3v-76.706c-.001-1.654-1.346-3-3.001-3z" fill="#e6e7e8" data-original="#e6e7e8" style=""/><g><path d="m113.436 28.709h-85.054v55.5 5.222c-2.037-2.594-5.194-4.266-8.747-4.266-5.82 0-10.582 4.473-11.07 10.166v.084c0 7.732 6.268 14 14 14h90.872c1.105 0 2-.895 2-2v-76.706c-.001-1.104-.896-2-2.001-2z" fill="#d4fbff" data-original="#d4fbff" style="" class=""/><g fill="#fa759e"><path d="m51.7 98.742h-12.626c-1.105 0-2-.895-2-2v-8.317c0-1.105.895-2 2-2h12.626c1.105 0 2 .895 2 2v8.317c0 1.105-.895 2-2 2z" fill="#fa759e" data-original="#fa759e" style="" class=""/><path d="m76.249 98.742h-12.626c-1.105 0-2-.895-2-2v-8.317c0-1.105.895-2 2-2h12.626c1.105 0 2 .895 2 2v8.317c0 1.105-.895 2-2 2z" fill="#fa759e" data-original="#fa759e" style="" class=""/><path d="m100.798 98.742h-12.626c-1.105 0-2-.895-2-2v-8.317c0-1.105.895-2 2-2h12.626c1.105 0 2 .895 2 2v8.317c0 1.105-.895 2-2 2z" fill="#fa759e" data-original="#fa759e" style="" class=""/></g><g><circle cx="69.936" cy="52.959" fill="#0089ef" r="14" data-original="#0089ef" style="" class=""/><path d="m73.718 55.629c-1.029.845-2.346 1.353-3.781 1.353s-2.752-.508-3.781-1.353c-2.558.088-4.609 2.176-4.609 4.756v3.783c2.338 1.753 5.243 2.792 8.39 2.792s6.052-1.039 8.39-2.792v-3.783c0-2.58-2.051-4.668-4.609-4.756z" fill="#fa759e" data-original="#fa759e" style="" class=""/><circle cx="69.936" cy="51.02" fill="#ffd7e5" r="5.962" data-original="#ffd7e5" style="" class=""/></g><path d="m113.436 28.709h-85.054v3h85.055c1.105 0 2 .895 2 2v-3c-.001-1.104-.896-2-2.001-2z" fill="#ffffff" data-original="#ffffff" style=""/><g><path d="m19.634 14.584c-5.778 0-10.525 4.406-11.07 10.041v70.707c.488-5.694 5.25-10.166 11.07-10.166 3.554 0 6.711 1.672 8.747 4.266v-5.222-65.359c-2.036-2.594-5.193-4.267-8.747-4.267z" fill="#6dc9f7" data-original="#6dc9f7" style="" class=""/><g fill="#3a2c60"><path d="m88.172 85.425c-1.654 0-3 1.346-3 3v8.317c0 1.654 1.346 3 3 3h12.626c1.654 0 3-1.346 3-3v-8.317c0-1.654-1.346-3-3-3h-5.312v-6.518c0-1.61-1.31-2.92-2.92-2.92h-21.629v-8.078c7.805-.518 14-7.016 14-14.949 0-8.271-6.729-15-15-15s-15 6.729-15 15c0 7.933 6.195 14.431 14 14.949v8.078h-21.63c-1.609 0-2.919 1.31-2.919 2.92v6.518h-5.313c-1.654 0-3 1.346-3 3v8.317c0 1.654 1.346 3 3 3h12.625c1.654 0 3-1.346 3-3v-8.317c0-1.654-1.346-3-3-3h-5.312v-6.518c0-.507.412-.92.919-.92h21.63v7.438h-5.313c-1.654 0-3 1.346-3 3v8.317c0 1.654 1.346 3 3 3h12.626c1.654 0 3-1.346 3-3v-8.317c0-1.654-1.346-3-3-3h-5.312v-7.438h21.629c.507 0 .92.413.92.92v6.518zm-18.235-29.443c-2.736 0-4.962-2.226-4.962-4.962s2.226-4.962 4.962-4.962 4.962 2.226 4.962 4.962-2.226 4.962-4.962 4.962zm-4.069.675c1.146.829 2.549 1.324 4.069 1.324s2.923-.495 4.069-1.324c1.865.226 3.321 1.801 3.321 3.727v3.257c-2.1 1.458-4.645 2.318-7.39 2.318s-5.29-.86-7.391-2.318v-3.256c0-1.926 1.456-3.501 3.322-3.728zm-8.931-3.698c0-7.168 5.832-13 13-13s13 5.832 13 13c0 3.477-1.38 6.631-3.61 8.966v-1.541c0-2.449-1.536-4.539-3.693-5.376.794-1.131 1.265-2.505 1.265-3.989 0-3.839-3.123-6.962-6.962-6.962s-6.962 3.123-6.962 6.962c0 1.484.47 2.858 1.265 3.989-2.157.837-3.693 2.927-3.693 5.376v1.54c-2.231-2.334-3.61-5.488-3.61-8.965zm-4.237 35.466v8.317c0 .551-.448 1-1 1h-12.626c-.552 0-1-.449-1-1v-8.317c0-.551.448-1 1-1h12.626c.552 0 1 .449 1 1zm24.549 0v8.317c0 .551-.448 1-1 1h-12.626c-.552 0-1-.449-1-1v-8.317c0-.551.448-1 1-1h12.626c.552 0 1 .449 1 1zm24.549 0v8.317c0 .551-.448 1-1 1h-12.626c-.552 0-1-.449-1-1v-8.317c0-.551.448-1 1-1h12.626c.552 0 1 .449 1 1z" fill="#3a2c60" data-original="#3a2c60" style="" class=""/><path d="m113.437 27.709h-84.055v-8.859c0-.224-.075-.441-.214-.618-2.32-2.954-5.795-4.648-9.534-4.648-6.274 0-11.461 4.705-12.07 11.041v70.707.083c0 8.271 6.729 15 15 15h59.623c.553 0 1-.448 1-1s-.447-1-1-1h-59.623c-7.168 0-13-5.832-13-13v-.027c.459-5.174 4.876-9.223 10.07-9.223 3.121 0 6.023 1.416 7.962 3.884.264.335.71.464 1.113.328.402-.14.673-.519.673-.945v-59.723h84.055c.552 0 1 .449 1 1v76.706c0 .551-.448 1-1 1h-14.5c-.553 0-1 .448-1 1s.447 1 1 1h14.5c1.654 0 3-1.346 3-3v-76.706c0-1.654-1.346-3-3-3zm-86.055 59.261c-2.157-1.804-4.875-2.804-7.748-2.804-4.146 0-7.878 2.153-10.07 5.423l-.005-64.868c.505-5.208 4.836-9.137 10.075-9.137 3.009 0 5.813 1.315 7.748 3.621z" fill="#3a2c60" data-original="#3a2c60" style="" class=""/><path d="m95.187 108.416h-8.875c-.553 0-1 .448-1 1s.447 1 1 1h8.875c.553 0 1-.448 1-1s-.448-1-1-1z" fill="#3a2c60" data-original="#3a2c60" style="" class=""/></g></g></g></g></g></svg>
