<?xml version="1.0"?>
<svg xmlns="http://www.w3.org/2000/svg" xmlns:xlink="http://www.w3.org/1999/xlink" xmlns:svgjs="http://svgjs.com/svgjs" version="1.1" width="512" height="512" x="0" y="0" viewBox="0 0 512 512" style="enable-background:new 0 0 512 512" xml:space="preserve" class=""><circle r="256" cx="256" cy="256" fill="#68d9aa" shape="circle" transform="matrix(0.6,0,0,0.6,102.4,102.4)"/><g transform="matrix(0.5,0,0,0.5,127.98954343795785,127.99854469299315)"><g xmlns="http://www.w3.org/2000/svg"><g fill="#57a4ff"><path d="m208 288 48 48h-32v40h-32v-40h-32z" fill="#d73737" data-original="#57a4ff" style="" class=""/><circle cx="256" cy="232" r="8" fill="#d73737" data-original="#57a4ff" style="" class=""/><path d="m256 208a23.913 23.913 0 0 1 16 6.11h-32a23.913 23.913 0 0 1 16-6.11z" fill="#d73737" data-original="#57a4ff" style="" class=""/><path d="m288 288h32v88h-32z" fill="#d73737" data-original="#57a4ff" style="" class=""/><path d="m256 336h-32v128h-32v-128h-32l48-48z" fill="#d73737" data-original="#57a4ff" style="" class=""/><path d="m352 416-48 48-48-48h32v-128h32v128z" fill="#d73737" data-original="#57a4ff" style="" class=""/><g><circle cx="256" cy="232" r="8" fill="#000000" data-original="#000000" style="" class=""/><path d="m272 214.11h-32a24 24 0 0 1 32 0z" fill="#000000" data-original="#000000" style="" class=""/></g></g><g fill="#004fac"><path d="m405.58 131.44a168.03 168.03 0 0 0 -316.94 61.79 96 96 0 0 0 15.36 190.77h80v80a8 8 0 0 0 8 8h32a8 8 0 0 0 8-8v-80h48v24h-24a8 8 0 0 0 -5.66 13.66l48 48a8.015 8.015 0 0 0 11.32 0l48-48a8 8 0 0 0 -5.66-13.66h-24v-24h48a127.98 127.98 0 0 0 128-128 128.4 128.4 0 0 0 -98.42-124.56zm-181.58 196.56a8 8 0 0 0 -8 8v120h-16v-120a8 8 0 0 0 -8-8h-12.69l28.69-28.69 28.69 28.69zm108.69 96-28.69 28.69-28.69-28.69h12.69a8 8 0 0 0 8-8v-120h16v120a8 8 0 0 0 8 8zm110.51-78.39a111.028 111.028 0 0 1 -67.2 22.39h-48v-80a8 8 0 0 0 -8-8h-32a8 8 0 0 0 -8 8v80h-48v-24h24a8 8 0 0 0 5.66-13.66l-48-48a8.015 8.015 0 0 0 -11.32 0l-48 48a8 8 0 0 0 5.66 13.66h24v24h-80a80 80 0 0 1 -7.12-159.68 8 8 0 0 0 7.29-7.59 152.022 152.022 0 0 1 288.75-58.82 7.991 7.991 0 0 0 5.6 4.36c51.85 10.57 89.48 56.72 89.48 109.73a111.168 111.168 0 0 1 -44.8 89.61z" fill="#023f87" data-original="#004fac" style="" class=""/><circle cx="256" cy="232" r="8" fill="#023f87" data-original="#004fac" style="" class=""/><path d="m277.336 208.15a32 32 0 0 0 -42.672 0 8 8 0 1 0 10.672 11.922 16 16 0 0 1 21.328 0 8 8 0 0 0 10.672-11.922z" fill="#023f87" data-original="#004fac" style="" class=""/><path d="m293.335 190.262a56 56 0 0 0 -74.67 0 8 8 0 0 0 10.67 11.922 40 40 0 0 1 53.33 0 8 8 0 1 0 10.67-11.922z" fill="#023f87" data-original="#004fac" style="" class=""/></g></g></g></svg>
