<?xml version="1.0"?>
<svg xmlns="http://www.w3.org/2000/svg" xmlns:xlink="http://www.w3.org/1999/xlink" xmlns:svgjs="http://svgjs.com/svgjs" version="1.1" width="512" height="512" x="0" y="0" viewBox="0 0 512 512.001" style="enable-background:new 0 0 512 512" xml:space="preserve" class=""><circle r="256" cx="256" cy="256.0005" fill="#d14a4a" shape="circle" transform="matrix(0.65,0,0,0.65,89.6,89.60017089843748)"/><g transform="matrix(0.6,0,0,0.6,140.90037689208987,102.4)"><path xmlns="http://www.w3.org/2000/svg" d="m189.75 30.003906c36.0625 0 69.785156 14.238282 94.957031 40.097656l21.5-20.929687c-30.871093-31.707031-72.226562-49.171875-116.457031-49.171875s-85.585938 17.464844-116.457031 49.171875l21.5 20.929687c25.171875-25.859374 58.894531-40.097656 94.957031-40.097656zm0 0" fill="#ffffff" data-original="#000000" style="" class=""/><path xmlns="http://www.w3.org/2000/svg" d="m263.804688 89.0625c-19.636719-20.175781-45.9375-31.285156-74.054688-31.285156s-54.417969 11.109375-74.054688 31.285156l21.5 20.925781c13.941407-14.320312 32.605469-22.207031 52.554688-22.207031s38.617188 7.886719 52.554688 22.207031zm0 0" fill="#ffffff" data-original="#000000" style="" class=""/><path xmlns="http://www.w3.org/2000/svg" d="m156.527344 129.714844 21.496094 20.925781c3.113281-3.195313 7.277343-4.957031 11.726562-4.957031s8.613281 1.761718 11.726562 4.957031l21.496094-20.925781c-8.808594-9.050782-20.605468-14.035156-33.222656-14.035156s-24.414062 4.984374-33.222656 14.035156zm0 0" fill="#ffffff" data-original="#000000" style="" class=""/><path xmlns="http://www.w3.org/2000/svg" d="m362.449219 216.765625c-27.480469-44.882813-65.851563-54.546875-93.203125-54.75-.296875-.003906-.589844-.003906-.886719-.003906-22.9375 0-45.601563 6.652343-65.554687 19.242187l-13.054688 8.175782-13.011719-8.152344c-20.253906-12.773438-43.234375-19.445313-66.480469-19.261719-27.351562.203125-65.726562 9.867187-93.203124 54.75-22.148438 36.175781-22.75 79.054687-1.648438 117.640625 16.074219 29.386719 40.757812 52.617188 64.632812 75.078125 4.15625 3.910156 8.082032 7.601563 11.976563 11.34375 14.699219 14.113281 29.566406 27.707031 43.945313 40.851563 14.242187 13.023437 28.96875 26.488281 43.398437 40.34375l10.390625 9.976562 10.390625-9.976562c14.433594-13.855469 29.15625-27.320313 43.398437-40.34375 14.378907-13.144532 29.246094-26.738282 43.945313-40.851563 3.898437-3.742187 7.824219-7.433594 11.980469-11.347656 23.871094-22.460938 48.558594-45.6875 64.628906-75.074219 21.101562-38.585938 20.503906-81.464844-1.644531-117.640625zm-24.679688 103.242187c-13.78125 25.203126-36.699219 46.769532-58.867187 67.621094-4.027344 3.792969-8.191406 7.710938-12.199219 11.558594-14.433594 13.859375-29.164063 27.328125-43.40625 40.351562-10.996094 10.050782-22.277344 20.363282-33.546875 30.972657-11.273438-10.609375-22.550781-20.921875-33.546875-30.972657-14.242187-13.023437-28.972656-26.492187-43.40625-40.351562-4.007813-3.847656-8.171875-7.765625-12.199219-11.554688-22.164062-20.855468-45.085937-42.421874-58.867187-67.625-15.804688-28.898437-15.472657-60.820312.910156-87.578124 16.285156-26.601563 39.109375-40.199219 67.839844-40.414063h.660156c17.261719 0 34.398437 5.054687 49.628906 14.664063l28.980469 18.152343 29.023438-18.179687c15.382812-9.703125 32.753906-14.765625 50.246093-14.636719 28.730469.214844 51.554688 13.8125 67.839844 40.414063 16.382813 26.757812 16.714844 58.679687.910156 87.578124zm0 0" fill="#ffffff" data-original="#000000" style="" class=""/></g></svg>
